# xmcd
#
# Track frame offsets: 
#        150
#        26169
#        43307
#        54894
#        71957
#        76794
#        84632
#        89807
#        95282
#        104994
#        109567
#        120762
#        134637
#        144197
#        149337
#        156874
#        161599
#        175382
#        181379
#        203319
#        210142
#        257207
#        270632
#        279629
#        286834
#
# Disc length: 4190 seconds
#
# Revision: 5
# Processed by: cddbd v1.5.2PL0 Copyright (c) Steve Scherf et al.
# Submitted via: ExactAudioCopy v1.0b3
#
DISCID=6a105c19
DTITLE=Vogel, Harald - Orgel - Famous Organ Music from Europe cd 01 - 
DTITLE=Orgelland Ostfriesland
DYEAR=2000
DGENRE=Orgel
TTITLE0=Buxtehude - Praeludium in C BuxWV 137 (Norden)
TTITLE1=Buxtehude - Nun lob, mein Seel den Herren BuxWV 212 (Norden)
TTITLE2=Buxtehude - Wäre Gott nicht mit uns diese Zeit (Norden)
TTITLE3=Buxtehude - Praeludium in G  BuxWV 147 (Norden)
TTITLE4=Goudimel - Psalm 116 (Uttum)
TTITLE5=anonym - Pavane dan Vers (Uttum)
TTITLE6=anonym - Almande de al nonette (Uttum)
TTITLE7=Sweelinck - Engelsche Fortuyn (Uttum)
TTITLE8=Sweelinck - Toccata in a (Uttum)
TTITLE9=Scheidt - Ach Gott und Herr (Uttum)
TTITLE10=Paumann - Redeuntes in mi (Rysum)
TTITLE11=Schlick - Maria zart (Rysum)
TTITLE12=anonym - Frysicum (Rysum)
TTITLE13=Ileborgh - Praeambulum super d (Rysum)
TTITLE14=Paumann - Fundamentum organisandi (Rysum)
TTITLE15=Hofhaime - Ade mit Leid (Rysum)
TTITLE16=Isaac - Innsbruck, ich muss dich lassen (Rysum)
TTITLE17=Hassler - Vater unser im Himmelreich (Westerhusen)
TTITLE18=Scheidt - Vater unser im Himmelreich (Westerhusen)
TTITLE19=anonym - Psalm 130 (Westerhusen)
TTITLE20=Bach - Sarabande con Partite  BWV 990 (Marienhafe)
TTITLE21=Böhm - Prelude in F (Marienhafe)
TTITLE22=Bach - Herzlich tut mich verlangen  BWV 727 (Weener)
TTITLE23=Bach - Wer nur den lieben Gott lässt walten  BWV 691 (Weener)
TTITLE24=Bach - Praeludium und Fuge g-moll  BWV 535a (Weener)
EXTD=YEAR: 2000
EXTT0=
EXTT1=
EXTT2=
EXTT3=
EXTT4=
EXTT5=
EXTT6=
EXTT7=
EXTT8=
EXTT9=
EXTT10=
EXTT11=
EXTT12=
EXTT13=
EXTT14=
EXTT15=
EXTT16=
EXTT17=
EXTT18=
EXTT19=
EXTT20=
EXTT21=
EXTT22=
EXTT23=
EXTT24=
PLAYORDER=
